<svg xmlns="http://www.w3.org/2000/svg" width="24" height="24" viewBox="0 0 24 24">
	<path fill="none" stroke="currentColor" stroke-linecap="round" stroke-linejoin="round" stroke-width="1.5" d="M11.505 2h-1.501c-3.281 0-4.921 0-6.084.814a4.5 4.5 0 0 0-1.106 1.105C2 5.08 2 6.72 2 10s0 4.919.814 6.081a4.5 4.5 0 0 0 1.106 1.105C5.083 18 6.723 18 10.004 18h4.002c3.28 0 4.921 0 6.084-.814a4.5 4.5 0 0 0 1.105-1.105c.63-.897.772-2.08.805-4.081m-8-6h4m0 0h4m-4 0V2m0 4v4m-7 5h2m-1 3v4m-4 0h8" color="currentColor" />
</svg>